<?xml version="1.0" encoding="utf-8"?>
<!-- Generator: Adobe Illustrator 27.4.1, SVG Export Plug-In . SVG Version: 6.00 Build 0)  -->
<svg version="1.1" id="Layer_1" xmlns="http://www.w3.org/2000/svg" xmlns:xlink="http://www.w3.org/1999/xlink" x="0px" y="0px"
	 viewBox="0 0 1920 1080" style="enable-background:new 0 0 1920 1080;" xml:space="preserve">
<style type="text/css">
	.st0{fill:#FFFFFF;}
</style>
<g>
	<rect x="516.5" y="498.5" width="41" height="126"/>
	<path d="M557,499v125h-40V499H557 M558,498h-42v127h42V498L558,498z"/>
</g>
<g>
	<rect x="581.5" y="422.5" width="41" height="278"/>
	<path d="M622,423v277h-40V423H622 M623,422h-42v279h42V422L623,422z"/>
</g>
<g>
	<rect x="646.5" y="337.5" width="41" height="448"/>
	<path d="M687,338v447h-40V338H687 M688,337h-42v449h42V337L688,337z"/>
</g>
<g>
	<rect x="711.5" y="446.5" width="41" height="231"/>
	<path d="M752,447v230h-40V447H752 M753,446h-42v232h42V446L753,446z"/>
</g>
<g>
	<rect x="776.5" y="422.5" width="41" height="278"/>
	<path d="M817,423v277h-40V423H817 M818,422h-42v279h42V422L818,422z"/>
</g>
<g>
	<rect x="841.5" y="364.5" width="41" height="394"/>
	<path d="M882,365v393h-40V365H882 M883,364h-42v395h42V364L883,364z"/>
</g>
<g>
	<rect x="1231.5" y="383.5" width="41" height="353"/>
	<path d="M1272,384v352h-40V384H1272 M1273,383h-42v354h42V383L1273,383z"/>
</g>
<g>
	<rect x="1166.5" y="421.5" width="41" height="278"/>
	<path d="M1207,422v277h-40V422H1207 M1208,421h-42v279h42V421L1208,421z"/>
</g>
<g>
	<rect x="906.5" y="422.5" width="41" height="278"/>
	<path d="M947,423v277h-40V423H947 M948,422h-42v279h42V422L948,422z"/>
</g>
<g>
	<rect x="1101.5" y="488.5" width="41" height="146"/>
	<path d="M1142,489v145h-40V489H1142 M1143,488h-42v147h42V488L1143,488z"/>
</g>
<g>
	<rect x="1426.5" y="549.5" width="41" height="25"/>
	<path d="M1467,550v24h-40v-24H1467 M1468,549h-42v26h42V549L1468,549z"/>
</g>
<g>
	<rect x="1296.5" y="421.5" width="41" height="278"/>
	<path d="M1337,422v277h-40V422H1337 M1338,421h-42v279h42V421L1338,421z"/>
</g>
<g>
	<rect x="1361.5" y="498.5" width="41" height="126"/>
	<path d="M1402,499v125h-40V499H1402 M1403,498h-42v127h42V498L1403,498z"/>
</g>
<g>
	<rect x="1036.5" y="548.5" width="41" height="25"/>
	<path d="M1077,549v24h-40v-24H1077 M1078,548h-42v26h42V548L1078,548z"/>
</g>
<g>
	<rect x="971.5" y="548.5" width="41" height="25"/>
	<path d="M1012,549v24h-40v-24H1012 M1013,548h-42v26h42V548L1013,548z"/>
</g>
<g>
	<rect x="451.5" y="548.5" width="41" height="25"/>
	<path d="M492,549v24h-40v-24H492 M493,548h-42v26h42V548L493,548z"/>
</g>
<g>
	<ellipse class="st0" cx="757.55" cy="730.78" rx="48.55" ry="52.26"/>
</g>
<g>
	<ellipse class="st0" cx="786.68" cy="657.62" rx="48.55" ry="52.26"/>
</g>
<g>
	<ellipse class="st0" cx="859.25" cy="629.56" rx="48.55" ry="52.26"/>
</g>
<g>
	<ellipse class="st0" cx="937.45" cy="626.26" rx="48.55" ry="52.26"/>
</g>
<g>
	<ellipse class="st0" cx="873.82" cy="714.28" rx="107.07" ry="84.72"/>
</g>
<g>
	<rect x="939.5" y="645.5" transform="matrix(0.9401 -0.3409 0.3409 0.9401 -174.8239 368.1041)" width="41" height="72"/>
	<path d="M966.7,641.31l24.21,66.75l-37.6,13.64l-24.21-66.75L966.7,641.31 M967.3,640.03l-39.48,14.32l24.89,68.63l39.48-14.32
		L967.3,640.03L967.3,640.03z"/>
</g>
<g>
	<rect x="792.64" y="678.75" transform="matrix(0.1571 -0.9876 0.9876 0.1571 20.9036 1423.033)" width="102.97" height="41.04"/>
	<path d="M832.37,645.77l39.54,6.29l-16.02,100.7l-39.54-6.29L832.37,645.77 M831.53,644.63L815.2,747.3l41.52,6.61l16.34-102.67
		L831.53,644.63L831.53,644.63z"/>
</g>
<g>
	<rect x="752.39" y="774.15" transform="matrix(0.3308 -0.9437 0.9437 0.3308 -228.4388 1267.1667)" width="53.7" height="41"/>
	<path d="M769.08,763.17l37.75,13.23l-17.43,49.73l-37.75-13.23L769.08,763.17 M768.47,761.9l-18.09,51.62l39.64,13.89l18.09-51.62
		L768.47,761.9L768.47,761.9z"/>
</g>
<g>
	<rect x="906.62" y="747.05" transform="matrix(0.4288 -0.9034 0.9034 0.4288 -177.8436 1284.8154)" width="41" height="72"/>
	<path d="M903.63,749.76l64.14,30.45l-17.15,36.14l-64.14-30.45L903.63,749.76 M903.15,748.43l-18.01,37.94l65.95,31.3l18.01-37.94
		L903.15,748.43L903.15,748.43z"/>
</g>
</svg>
