<svg width="1012" height="1038" viewBox="0 0 1012 1038" fill="none" xmlns="http://www.w3.org/2000/svg">
<path d="M1012 0H0V1038H1012V0Z" fill="black"/>
<path d="M90.0876 454.48H53.6074V535.973H90.0876V454.48Z" fill="url(#paint0_linear_80409_75)"/>
<path d="M203.056 294.867H166.748V696.206H203.056V294.867Z" fill="url(#paint1_linear_80409_75)"/>
<path d="M280.103 392.468V594.862C287.069 588.784 296.358 585.381 306.028 585.362C309.545 585.385 313.04 585.856 316.412 586.761V392.468H280.103Z" fill="url(#paint2_linear_80409_75)"/>
<path d="M448.625 370.341V522.237C451.012 519.972 453.968 518.153 457.292 516.905C460.617 515.657 464.231 515.009 467.89 515.005C474.187 515.008 480.259 516.917 484.934 520.363V370.341H448.625Z" fill="url(#paint3_linear_80409_75)"/>
<path d="M880.005 387.04H843.697V602.883H880.005V387.04Z" fill="url(#paint4_linear_80409_75)"/>
<path d="M936.446 457.215H900.138V534.83H936.446V457.215Z" fill="url(#paint5_linear_80409_75)"/>
<path d="M597.627 483.605H561.319V506.76H597.627V483.605Z" fill="url(#paint6_linear_80409_75)"/>
<path d="M541.358 483.473H505.05V506.627H541.358V483.473Z" fill="url(#paint7_linear_80409_75)"/>
<path d="M503.174 565.456L468.722 577.229L488.547 638.219L522.999 626.446L503.174 565.456Z" fill="url(#paint8_linear_80409_75)"/>
<path d="M362.515 689.088L329.342 675.354L312.847 719.35L346.02 733.084L362.515 689.088Z" fill="url(#paint9_linear_80409_75)"/>
<path d="M710.682 277.399H674.373V712.525H710.682V277.399Z" fill="url(#paint10_linear_80409_75)"/>
<path d="M146.529 379.047H110.22V612.114H146.529V379.047Z" fill="url(#paint11_linear_80409_75)"/>
<path d="M258.981 203.008H222.672V787.401H258.981V203.008Z" fill="url(#paint12_linear_80409_75)"/>
<path d="M336.075 371.465V514.423C341.682 513.397 347.662 512.867 353.7 512.86C360.121 512.864 366.475 513.459 372.383 514.612V371.465H336.075ZM372.383 534.734L353.705 534.735H372.383V534.734Z" fill="url(#paint13_linear_80409_75)"/>
<path d="M392.046 320.212V497.598C394.44 494.852 397.442 492.642 400.837 491.124C404.232 489.606 407.938 488.817 411.69 488.815C417.811 488.824 423.725 490.922 428.355 494.727V320.212H392.046ZM428.355 513.075L411.693 513.079H428.355V513.075Z" fill="url(#paint14_linear_80409_75)"/>
<path d="M653.856 430.227H617.548V561.134H653.856V430.227Z" fill="url(#paint15_linear_80409_75)"/>
<path d="M418.969 580.039L383.215 573.547L368.219 660.73L403.973 667.222L418.969 580.039Z" fill="url(#paint16_linear_80409_75)"/>
<path d="M445.375 663.936L430.679 698.047L487.942 724L502.637 689.89L445.375 663.936Z" fill="url(#paint17_linear_80409_75)"/>
<path d="M822.875 292.463H786.567V696.046H822.875V292.463Z" fill="url(#paint18_linear_80409_75)"/>
<path d="M767.123 196.647H730.814V791.155H767.123V196.647Z" fill="url(#paint19_linear_80409_75)"/>
<path d="M246.364 891.818C246.061 888.485 244.712 885.894 242.318 884.045C239.955 882.167 236.576 881.227 232.182 881.227C229.273 881.227 226.848 881.606 224.909 882.364C222.97 883.121 221.515 884.167 220.545 885.5C219.576 886.803 219.076 888.303 219.045 890C218.985 891.394 219.258 892.621 219.864 893.682C220.5 894.742 221.409 895.682 222.591 896.5C223.803 897.288 225.258 897.985 226.955 898.591C228.652 899.197 230.561 899.727 232.682 900.182L240.682 902C245.288 903 249.348 904.333 252.864 906C256.409 907.667 259.379 909.652 261.773 911.955C264.197 914.258 266.03 916.909 267.273 919.909C268.515 922.909 269.152 926.273 269.182 930C269.152 935.879 267.667 940.924 264.727 945.136C261.788 949.348 257.561 952.576 252.045 954.818C246.561 957.061 239.939 958.182 232.182 958.182C224.394 958.182 217.606 957.015 211.818 954.682C206.03 952.348 201.53 948.803 198.318 944.045C195.106 939.288 193.455 933.273 193.364 926H214.909C215.091 929 215.894 931.5 217.318 933.5C218.742 935.5 220.697 937.015 223.182 938.045C225.697 939.076 228.606 939.591 231.909 939.591C234.939 939.591 237.515 939.182 239.636 938.364C241.788 937.545 243.439 936.409 244.591 934.955C245.742 933.5 246.333 931.833 246.364 929.955C246.333 928.197 245.788 926.697 244.727 925.455C243.667 924.182 242.03 923.091 239.818 922.182C237.636 921.242 234.848 920.379 231.455 919.591L221.727 917.318C213.667 915.47 207.318 912.485 202.682 908.364C198.045 904.212 195.742 898.606 195.773 891.545C195.742 885.788 197.288 880.742 200.409 876.409C203.53 872.076 207.848 868.697 213.364 866.273C218.879 863.848 225.167 862.636 232.227 862.636C239.439 862.636 245.697 863.864 251 866.318C256.333 868.742 260.47 872.152 263.409 876.545C266.348 880.939 267.848 886.03 267.909 891.818H246.364ZM313.136 958.318C305.803 958.318 299.5 956.818 294.227 953.818C288.985 950.788 284.939 946.576 282.091 941.182C279.273 935.758 277.864 929.47 277.864 922.318C277.864 915.136 279.273 908.848 282.091 903.455C284.939 898.03 288.985 893.818 294.227 890.818C299.5 887.788 305.803 886.273 313.136 886.273C320.47 886.273 326.758 887.788 332 890.818C337.273 893.818 341.318 898.03 344.136 903.455C346.985 908.848 348.409 915.136 348.409 922.318C348.409 929.47 346.985 935.758 344.136 941.182C341.318 946.576 337.273 950.788 332 953.818C326.758 956.818 320.47 958.318 313.136 958.318ZM313.273 941.545C315.939 941.545 318.197 940.727 320.045 939.091C321.894 937.455 323.303 935.182 324.273 932.273C325.273 929.364 325.773 926 325.773 922.182C325.773 918.303 325.273 914.909 324.273 912C323.303 909.091 321.894 906.818 320.045 905.182C318.197 903.545 315.939 902.727 313.273 902.727C310.515 902.727 308.182 903.545 306.273 905.182C304.394 906.818 302.955 909.091 301.955 912C300.985 914.909 300.5 918.303 300.5 922.182C300.5 926 300.985 929.364 301.955 932.273C302.955 935.182 304.394 937.455 306.273 939.091C308.182 940.727 310.515 941.545 313.273 941.545ZM404.841 926.864V887.182H427.023V957H405.841V944H405.114C403.568 948.273 400.932 951.667 397.205 954.182C393.508 956.667 389.038 957.909 383.795 957.909C379.038 957.909 374.856 956.818 371.25 954.636C367.644 952.455 364.841 949.409 362.841 945.5C360.841 941.561 359.826 936.955 359.795 931.682V887.182H382.023V927.318C382.053 931.106 383.053 934.091 385.023 936.273C386.992 938.455 389.674 939.545 393.068 939.545C395.28 939.545 397.265 939.061 399.023 938.091C400.811 937.091 402.22 935.652 403.25 933.773C404.311 931.864 404.841 929.561 404.841 926.864ZM463.398 917.182V957H441.17V887.182H462.307V900H463.08C464.625 895.727 467.261 892.379 470.989 889.955C474.716 887.5 479.155 886.273 484.307 886.273C489.216 886.273 493.473 887.379 497.08 889.591C500.716 891.773 503.534 894.833 505.534 898.773C507.564 902.682 508.564 907.258 508.534 912.5V957H486.307V916.864C486.337 912.985 485.352 909.955 483.352 907.773C481.383 905.591 478.64 904.5 475.125 904.5C472.792 904.5 470.731 905.015 468.943 906.045C467.186 907.045 465.822 908.485 464.852 910.364C463.913 912.242 463.428 914.515 463.398 917.182ZM547.795 958C542.644 958 537.962 956.667 533.75 954C529.538 951.333 526.174 947.333 523.659 942C521.144 936.667 519.886 930.045 519.886 922.136C519.886 913.924 521.189 907.167 523.795 901.864C526.402 896.561 529.811 892.636 534.023 890.091C538.265 887.545 542.826 886.273 547.705 886.273C551.371 886.273 554.508 886.909 557.114 888.182C559.72 889.424 561.871 891.03 563.568 893C565.265 894.97 566.553 897.015 567.432 899.136H567.886V863.909H590.114V957H568.114V945.682H567.432C566.492 947.833 565.159 949.848 563.432 951.727C561.705 953.606 559.538 955.121 556.932 956.273C554.356 957.424 551.311 958 547.795 958ZM555.523 940.682C558.22 940.682 560.523 939.924 562.432 938.409C564.341 936.864 565.811 934.697 566.841 931.909C567.871 929.121 568.386 925.848 568.386 922.091C568.386 918.273 567.871 914.985 566.841 912.227C565.841 909.47 564.371 907.348 562.432 905.864C560.523 904.379 558.22 903.636 555.523 903.636C552.765 903.636 550.432 904.394 548.523 905.909C546.614 907.424 545.159 909.561 544.159 912.318C543.189 915.076 542.705 918.333 542.705 922.091C542.705 925.848 543.205 929.121 544.205 931.909C545.205 934.697 546.644 936.864 548.523 938.409C550.432 939.924 552.765 940.682 555.523 940.682ZM604.17 957V863.909H626.398V899.136H626.852C627.761 897.015 629.049 894.97 630.716 893C632.413 891.03 634.564 889.424 637.17 888.182C639.807 886.909 642.958 886.273 646.625 886.273C651.473 886.273 656.004 887.545 660.216 890.091C664.458 892.636 667.883 896.561 670.489 901.864C673.095 907.167 674.398 913.924 674.398 922.136C674.398 930.045 673.14 936.667 670.625 942C668.14 947.333 664.777 951.333 660.534 954C656.322 956.667 651.64 958 646.489 958C642.973 958 639.928 957.424 637.352 956.273C634.777 955.121 632.61 953.606 630.852 951.727C629.125 949.848 627.792 947.833 626.852 945.682H626.17V957H604.17ZM625.943 922.091C625.943 925.848 626.443 929.121 627.443 931.909C628.473 934.697 629.943 936.864 631.852 938.409C633.792 939.924 636.11 940.682 638.807 940.682C641.534 940.682 643.852 939.924 645.761 938.409C647.67 936.864 649.11 934.697 650.08 931.909C651.08 929.121 651.58 925.848 651.58 922.091C651.58 918.333 651.08 915.076 650.08 912.318C649.11 909.561 647.67 907.424 645.761 905.909C643.883 904.394 641.564 903.636 638.807 903.636C636.08 903.636 633.761 904.379 631.852 905.864C629.943 907.348 628.473 909.47 627.443 912.227C626.443 914.985 625.943 918.273 625.943 922.091ZM686.045 957V887.182H708.273V957H686.045ZM697.182 879.045C694.061 879.045 691.379 878.015 689.136 875.955C686.894 873.864 685.773 871.348 685.773 868.409C685.773 865.5 686.894 863.015 689.136 860.955C691.379 858.864 694.061 857.818 697.182 857.818C700.333 857.818 703.015 858.864 705.227 860.955C707.47 863.015 708.591 865.5 708.591 868.409C708.591 871.348 707.47 873.864 705.227 875.955C703.015 878.015 700.333 879.045 697.182 879.045ZM761.83 887.182V903.545H717.784V887.182H761.83ZM727.011 870.455H749.239V935.045C749.239 936.409 749.451 937.515 749.875 938.364C750.33 939.182 750.981 939.773 751.83 940.136C752.678 940.47 753.693 940.636 754.875 940.636C755.723 940.636 756.617 940.561 757.557 940.409C758.527 940.227 759.254 940.076 759.739 939.955L763.102 956C762.042 956.303 760.542 956.682 758.602 957.136C756.693 957.591 754.405 957.879 751.739 958C746.527 958.242 742.057 957.636 738.33 956.182C734.633 954.697 731.799 952.394 729.83 949.273C727.89 946.152 726.951 942.227 727.011 937.5V870.455ZM833.25 908.5L812.841 909.045C812.629 907.591 812.053 906.303 811.114 905.182C810.174 904.03 808.947 903.136 807.432 902.5C805.947 901.833 804.22 901.5 802.25 901.5C799.674 901.5 797.477 902.015 795.659 903.045C793.871 904.076 792.992 905.47 793.023 907.227C792.992 908.591 793.538 909.773 794.659 910.773C795.811 911.773 797.856 912.576 800.795 913.182L814.25 915.727C821.22 917.061 826.402 919.273 829.795 922.364C833.22 925.455 834.947 929.545 834.977 934.636C834.947 939.424 833.523 943.591 830.705 947.136C827.917 950.682 824.098 953.439 819.25 955.409C814.402 957.348 808.856 958.318 802.614 958.318C792.644 958.318 784.78 956.273 779.023 952.182C773.295 948.061 770.023 942.545 769.205 935.636L791.159 935.091C791.644 937.636 792.902 939.576 794.932 940.909C796.962 942.242 799.553 942.909 802.705 942.909C805.553 942.909 807.871 942.379 809.659 941.318C811.447 940.258 812.356 938.848 812.386 937.091C812.356 935.515 811.659 934.258 810.295 933.318C808.932 932.348 806.795 931.591 803.886 931.045L791.705 928.727C784.705 927.455 779.492 925.106 776.068 921.682C772.644 918.227 770.947 913.833 770.977 908.5C770.947 903.833 772.189 899.848 774.705 896.545C777.22 893.212 780.795 890.667 785.432 888.909C790.068 887.152 795.538 886.273 801.841 886.273C811.295 886.273 818.75 888.258 824.205 892.227C829.659 896.167 832.674 901.591 833.25 908.5Z" fill="white"/>
<path d="M246.364 891.818C246.061 888.485 244.712 885.894 242.318 884.045C239.955 882.167 236.576 881.227 232.182 881.227C229.273 881.227 226.848 881.606 224.909 882.364C222.97 883.121 221.515 884.167 220.545 885.5C219.576 886.803 219.076 888.303 219.045 890C218.985 891.394 219.258 892.621 219.864 893.682C220.5 894.742 221.409 895.682 222.591 896.5C223.803 897.288 225.258 897.985 226.955 898.591C228.652 899.197 230.561 899.727 232.682 900.182L240.682 902C245.288 903 249.348 904.333 252.864 906C256.409 907.667 259.379 909.652 261.773 911.955C264.197 914.258 266.03 916.909 267.273 919.909C268.515 922.909 269.152 926.273 269.182 930C269.152 935.879 267.667 940.924 264.727 945.136C261.788 949.348 257.561 952.576 252.045 954.818C246.561 957.061 239.939 958.182 232.182 958.182C224.394 958.182 217.606 957.015 211.818 954.682C206.03 952.348 201.53 948.803 198.318 944.045C195.106 939.288 193.455 933.273 193.364 926H214.909C215.091 929 215.894 931.5 217.318 933.5C218.742 935.5 220.697 937.015 223.182 938.045C225.697 939.076 228.606 939.591 231.909 939.591C234.939 939.591 237.515 939.182 239.636 938.364C241.788 937.545 243.439 936.409 244.591 934.955C245.742 933.5 246.333 931.833 246.364 929.955C246.333 928.197 245.788 926.697 244.727 925.455C243.667 924.182 242.03 923.091 239.818 922.182C237.636 921.242 234.848 920.379 231.455 919.591L221.727 917.318C213.667 915.47 207.318 912.485 202.682 908.364C198.045 904.212 195.742 898.606 195.773 891.545C195.742 885.788 197.288 880.742 200.409 876.409C203.53 872.076 207.848 868.697 213.364 866.273C218.879 863.848 225.167 862.636 232.227 862.636C239.439 862.636 245.697 863.864 251 866.318C256.333 868.742 260.47 872.152 263.409 876.545C266.348 880.939 267.848 886.03 267.909 891.818H246.364ZM313.136 958.318C305.803 958.318 299.5 956.818 294.227 953.818C288.985 950.788 284.939 946.576 282.091 941.182C279.273 935.758 277.864 929.47 277.864 922.318C277.864 915.136 279.273 908.848 282.091 903.455C284.939 898.03 288.985 893.818 294.227 890.818C299.5 887.788 305.803 886.273 313.136 886.273C320.47 886.273 326.758 887.788 332 890.818C337.273 893.818 341.318 898.03 344.136 903.455C346.985 908.848 348.409 915.136 348.409 922.318C348.409 929.47 346.985 935.758 344.136 941.182C341.318 946.576 337.273 950.788 332 953.818C326.758 956.818 320.47 958.318 313.136 958.318ZM313.273 941.545C315.939 941.545 318.197 940.727 320.045 939.091C321.894 937.455 323.303 935.182 324.273 932.273C325.273 929.364 325.773 926 325.773 922.182C325.773 918.303 325.273 914.909 324.273 912C323.303 909.091 321.894 906.818 320.045 905.182C318.197 903.545 315.939 902.727 313.273 902.727C310.515 902.727 308.182 903.545 306.273 905.182C304.394 906.818 302.955 909.091 301.955 912C300.985 914.909 300.5 918.303 300.5 922.182C300.5 926 300.985 929.364 301.955 932.273C302.955 935.182 304.394 937.455 306.273 939.091C308.182 940.727 310.515 941.545 313.273 941.545ZM404.841 926.864V887.182H427.023V957H405.841V944H405.114C403.568 948.273 400.932 951.667 397.205 954.182C393.508 956.667 389.038 957.909 383.795 957.909C379.038 957.909 374.856 956.818 371.25 954.636C367.644 952.455 364.841 949.409 362.841 945.5C360.841 941.561 359.826 936.955 359.795 931.682V887.182H382.023V927.318C382.053 931.106 383.053 934.091 385.023 936.273C386.992 938.455 389.674 939.545 393.068 939.545C395.28 939.545 397.265 939.061 399.023 938.091C400.811 937.091 402.22 935.652 403.25 933.773C404.311 931.864 404.841 929.561 404.841 926.864ZM463.398 917.182V957H441.17V887.182H462.307V900H463.08C464.625 895.727 467.261 892.379 470.989 889.955C474.716 887.5 479.155 886.273 484.307 886.273C489.216 886.273 493.473 887.379 497.08 889.591C500.716 891.773 503.534 894.833 505.534 898.773C507.564 902.682 508.564 907.258 508.534 912.5V957H486.307V916.864C486.337 912.985 485.352 909.955 483.352 907.773C481.383 905.591 478.64 904.5 475.125 904.5C472.792 904.5 470.731 905.015 468.943 906.045C467.186 907.045 465.822 908.485 464.852 910.364C463.913 912.242 463.428 914.515 463.398 917.182ZM547.795 958C542.644 958 537.962 956.667 533.75 954C529.538 951.333 526.174 947.333 523.659 942C521.144 936.667 519.886 930.045 519.886 922.136C519.886 913.924 521.189 907.167 523.795 901.864C526.402 896.561 529.811 892.636 534.023 890.091C538.265 887.545 542.826 886.273 547.705 886.273C551.371 886.273 554.508 886.909 557.114 888.182C559.72 889.424 561.871 891.03 563.568 893C565.265 894.97 566.553 897.015 567.432 899.136H567.886V863.909H590.114V957H568.114V945.682H567.432C566.492 947.833 565.159 949.848 563.432 951.727C561.705 953.606 559.538 955.121 556.932 956.273C554.356 957.424 551.311 958 547.795 958ZM555.523 940.682C558.22 940.682 560.523 939.924 562.432 938.409C564.341 936.864 565.811 934.697 566.841 931.909C567.871 929.121 568.386 925.848 568.386 922.091C568.386 918.273 567.871 914.985 566.841 912.227C565.841 909.47 564.371 907.348 562.432 905.864C560.523 904.379 558.22 903.636 555.523 903.636C552.765 903.636 550.432 904.394 548.523 905.909C546.614 907.424 545.159 909.561 544.159 912.318C543.189 915.076 542.705 918.333 542.705 922.091C542.705 925.848 543.205 929.121 544.205 931.909C545.205 934.697 546.644 936.864 548.523 938.409C550.432 939.924 552.765 940.682 555.523 940.682ZM604.17 957V863.909H626.398V899.136H626.852C627.761 897.015 629.049 894.97 630.716 893C632.413 891.03 634.564 889.424 637.17 888.182C639.807 886.909 642.958 886.273 646.625 886.273C651.473 886.273 656.004 887.545 660.216 890.091C664.458 892.636 667.883 896.561 670.489 901.864C673.095 907.167 674.398 913.924 674.398 922.136C674.398 930.045 673.14 936.667 670.625 942C668.14 947.333 664.777 951.333 660.534 954C656.322 956.667 651.64 958 646.489 958C642.973 958 639.928 957.424 637.352 956.273C634.777 955.121 632.61 953.606 630.852 951.727C629.125 949.848 627.792 947.833 626.852 945.682H626.17V957H604.17ZM625.943 922.091C625.943 925.848 626.443 929.121 627.443 931.909C628.473 934.697 629.943 936.864 631.852 938.409C633.792 939.924 636.11 940.682 638.807 940.682C641.534 940.682 643.852 939.924 645.761 938.409C647.67 936.864 649.11 934.697 650.08 931.909C651.08 929.121 651.58 925.848 651.58 922.091C651.58 918.333 651.08 915.076 650.08 912.318C649.11 909.561 647.67 907.424 645.761 905.909C643.883 904.394 641.564 903.636 638.807 903.636C636.08 903.636 633.761 904.379 631.852 905.864C629.943 907.348 628.473 909.47 627.443 912.227C626.443 914.985 625.943 918.273 625.943 922.091ZM686.045 957V887.182H708.273V957H686.045ZM697.182 879.045C694.061 879.045 691.379 878.015 689.136 875.955C686.894 873.864 685.773 871.348 685.773 868.409C685.773 865.5 686.894 863.015 689.136 860.955C691.379 858.864 694.061 857.818 697.182 857.818C700.333 857.818 703.015 858.864 705.227 860.955C707.47 863.015 708.591 865.5 708.591 868.409C708.591 871.348 707.47 873.864 705.227 875.955C703.015 878.015 700.333 879.045 697.182 879.045ZM761.83 887.182V903.545H717.784V887.182H761.83ZM727.011 870.455H749.239V935.045C749.239 936.409 749.451 937.515 749.875 938.364C750.33 939.182 750.981 939.773 751.83 940.136C752.678 940.47 753.693 940.636 754.875 940.636C755.723 940.636 756.617 940.561 757.557 940.409C758.527 940.227 759.254 940.076 759.739 939.955L763.102 956C762.042 956.303 760.542 956.682 758.602 957.136C756.693 957.591 754.405 957.879 751.739 958C746.527 958.242 742.057 957.636 738.33 956.182C734.633 954.697 731.799 952.394 729.83 949.273C727.89 946.152 726.951 942.227 727.011 937.5V870.455ZM833.25 908.5L812.841 909.045C812.629 907.591 812.053 906.303 811.114 905.182C810.174 904.03 808.947 903.136 807.432 902.5C805.947 901.833 804.22 901.5 802.25 901.5C799.674 901.5 797.477 902.015 795.659 903.045C793.871 904.076 792.992 905.47 793.023 907.227C792.992 908.591 793.538 909.773 794.659 910.773C795.811 911.773 797.856 912.576 800.795 913.182L814.25 915.727C821.22 917.061 826.402 919.273 829.795 922.364C833.22 925.455 834.947 929.545 834.977 934.636C834.947 939.424 833.523 943.591 830.705 947.136C827.917 950.682 824.098 953.439 819.25 955.409C814.402 957.348 808.856 958.318 802.614 958.318C792.644 958.318 784.78 956.273 779.023 952.182C773.295 948.061 770.023 942.545 769.205 935.636L791.159 935.091C791.644 937.636 792.902 939.576 794.932 940.909C796.962 942.242 799.553 942.909 802.705 942.909C805.553 942.909 807.871 942.379 809.659 941.318C811.447 940.258 812.356 938.848 812.386 937.091C812.356 935.515 811.659 934.258 810.295 933.318C808.932 932.348 806.795 931.591 803.886 931.045L791.705 928.727C784.705 927.455 779.492 925.106 776.068 921.682C772.644 918.227 770.947 913.833 770.977 908.5C770.947 903.833 772.189 899.848 774.705 896.545C777.22 893.212 780.795 890.667 785.432 888.909C790.068 887.152 795.538 886.273 801.841 886.273C811.295 886.273 818.75 888.258 824.205 892.227C829.659 896.167 832.674 901.591 833.25 908.5Z" fill="url(#paint20_linear_80409_75)"/>
<defs>
<linearGradient id="paint0_linear_80409_75" x1="509.221" y1="151.273" x2="509.221" y2="1447.81" gradientUnits="userSpaceOnUse">
<stop stop-color="#500C7E"/>
<stop offset="1" stop-color="#6CBCFF"/>
</linearGradient>
<linearGradient id="paint1_linear_80409_75" x1="509.221" y1="337.156" x2="509.221" y2="932.289" gradientUnits="userSpaceOnUse">
<stop stop-color="#500C7E"/>
<stop offset="1" stop-color="#6CBCFF"/>
</linearGradient>
<linearGradient id="paint2_linear_80409_75" x1="509.221" y1="397.479" x2="509.221" y2="765.939" gradientUnits="userSpaceOnUse">
<stop stop-color="#500C7E"/>
<stop offset="1" stop-color="#6CBCFF"/>
</linearGradient>
<linearGradient id="paint3_linear_80409_75" x1="509.221" y1="397.48" x2="509.221" y2="765.939" gradientUnits="userSpaceOnUse">
<stop stop-color="#500C7E"/>
<stop offset="1" stop-color="#6CBCFF"/>
</linearGradient>
<linearGradient id="paint4_linear_80409_75" x1="509.222" y1="310.288" x2="509.222" y2="1008.31" gradientUnits="userSpaceOnUse">
<stop stop-color="#500C7E"/>
<stop offset="1" stop-color="#6CBCFF"/>
</linearGradient>
<linearGradient id="paint5_linear_80409_75" x1="509.221" y1="159.269" x2="509.221" y2="1418.41" gradientUnits="userSpaceOnUse">
<stop stop-color="#500C7E"/>
<stop offset="1" stop-color="#6CBCFF"/>
</linearGradient>
<linearGradient id="paint6_linear_80409_75" x1="509.221" y1="397.479" x2="509.221" y2="765.939" gradientUnits="userSpaceOnUse">
<stop stop-color="#500C7E"/>
<stop offset="1" stop-color="#6CBCFF"/>
</linearGradient>
<linearGradient id="paint7_linear_80409_75" x1="509.221" y1="397.48" x2="509.221" y2="765.939" gradientUnits="userSpaceOnUse">
<stop stop-color="#500C7E"/>
<stop offset="1" stop-color="#6CBCFF"/>
</linearGradient>
<linearGradient id="paint8_linear_80409_75" x1="693.799" y1="84.7532" x2="812.614" y2="432.458" gradientUnits="userSpaceOnUse">
<stop stop-color="#500C7E"/>
<stop offset="1" stop-color="#6CBCFF"/>
</linearGradient>
<linearGradient id="paint9_linear_80409_75" x1="189.246" y1="673.384" x2="48.8563" y2="1012.47" gradientUnits="userSpaceOnUse">
<stop stop-color="#500C7E"/>
<stop offset="1" stop-color="#6CBCFF"/>
</linearGradient>
<linearGradient id="paint10_linear_80409_75" x1="509.221" y1="324.129" x2="509.221" y2="969.837" gradientUnits="userSpaceOnUse">
<stop stop-color="#500C7E"/>
<stop offset="1" stop-color="#6CBCFF"/>
</linearGradient>
<linearGradient id="paint11_linear_80409_75" x1="510.056" y1="139.191" x2="510.056" y2="739.189" gradientUnits="userSpaceOnUse">
<stop stop-color="#790085"/>
<stop offset="1" stop-color="#FF0DE7"/>
</linearGradient>
<linearGradient id="paint12_linear_80409_75" x1="510.056" y1="243.373" x2="510.056" y2="668.268" gradientUnits="userSpaceOnUse">
<stop stop-color="#790085"/>
<stop offset="1" stop-color="#FF0DE7"/>
</linearGradient>
<linearGradient id="paint13_linear_80409_75" x1="510.056" y1="322.838" x2="510.056" y2="613.658" gradientUnits="userSpaceOnUse">
<stop stop-color="#790085"/>
<stop offset="1" stop-color="#FF0DE7"/>
</linearGradient>
<linearGradient id="paint14_linear_80409_75" x1="510.056" y1="322.838" x2="510.056" y2="613.658" gradientUnits="userSpaceOnUse">
<stop stop-color="#790085"/>
<stop offset="1" stop-color="#FF0DE7"/>
</linearGradient>
<linearGradient id="paint15_linear_80409_75" x1="510.056" y1="322.838" x2="510.056" y2="613.658" gradientUnits="userSpaceOnUse">
<stop stop-color="#790085"/>
<stop offset="1" stop-color="#FF0DE7"/>
</linearGradient>
<linearGradient id="paint16_linear_80409_75" x1="384.571" y1="464.3" x2="332.663" y2="750.202" gradientUnits="userSpaceOnUse">
<stop stop-color="#790085"/>
<stop offset="1" stop-color="#FF0DE7"/>
</linearGradient>
<linearGradient id="paint17_linear_80409_75" x1="597.032" y1="-870.019" x2="858.127" y2="-757.535" gradientUnits="userSpaceOnUse">
<stop stop-color="#790085"/>
<stop offset="1" stop-color="#FF0DE7"/>
</linearGradient>
<linearGradient id="paint18_linear_80409_75" x1="510.056" y1="215.631" x2="510.056" y2="688.335" gradientUnits="userSpaceOnUse">
<stop stop-color="#790085"/>
<stop offset="1" stop-color="#FF0DE7"/>
</linearGradient>
<linearGradient id="paint19_linear_80409_75" x1="510.056" y1="171.535" x2="510.056" y2="719.581" gradientUnits="userSpaceOnUse">
<stop stop-color="#790085"/>
<stop offset="1" stop-color="#FF0DE7"/>
</linearGradient>
<linearGradient id="paint20_linear_80409_75" x1="598" y1="833" x2="598" y2="994" gradientUnits="userSpaceOnUse">
<stop stop-color="#FF72F1"/>
<stop offset="1" stop-color="#500C7E"/>
</linearGradient>
</defs>
</svg>
